# xmcd
#
# Track frame offsets:
#	182
#	15650
#	28475
#	38180
#	54950
#	62700
#	74900
#	83750
#	93200
#	105475
#	116750
#	128750
#	144780
#	154287
#	165162
#	182150
#	198875
#	217175
#	234800
#	252200
#	266125
#	284075
#	296675
#
# Disc length: 4140 seconds
#
# Revision: 0
# Processed by: cddbd v1.5.1PL0 Copyright (c) Steve Scherf et al.
# Submitted via: dBpowerAMP V4.0
#
DISCID=51102a17
DTITLE=Nautilus - Musica per Commenti Sonori
DYEAR=1900
DGENRE=Acoustic
TTITLE0=CATHAY -China
TTITLE1=ORIENTAL PRODUCTIVITY - Taiwan
TTITLE2=ZEN GARDEN - Japan
TTITLE3=IMPERIAL CITY - China
TTITLE4=FISH VENDOR - Hong Kong
TTITLE5=MOON OVER MALACCA - Malaysia
TTITLE6=KOREAN SUN FESTIVAL - Korea
TTITLE7=BALI DANCE - Indonesia
TTITLE8=TIBETAN SPIRITUAL - Tibet
TTITLE9=MACAO MARKET - Macao
TTITLE10=BODY MASSAGE - Thailand
TTITLE11=GOLD PAGODA - Burma
TTITLE12=THE VIRGIN DANCER - Cambodia
TTITLE13=SPRING CELEBRATION - Japan
TTITLE14=VILLAGE GIRL - Laos
TTITLE15=THE YEAR OF DRAGON - Viet Nam
TTITLE16=YELLOW MAFIA - China
TTITLE17=ORCHIDS FROM SINGAPORE - Singapore
TTITLE18=HINDU PROCESSION - India
TTITLE19=MANILA STREET - Philipines
TTITLE20=CAMEL MARKET - Mongolia
TTITLE21=BORNEO JUNGLE - Borneo
TTITLE22=KIMONO - Japan
EXTD=
EXTT0=
EXTT1=
EXTT2=
EXTT3=
EXTT4=
EXTT5=
EXTT6=
EXTT7=
EXTT8=
EXTT9=
EXTT10=
EXTT11=
EXTT12=
EXTT13=
EXTT14=
EXTT15=
EXTT16=
EXTT17=
EXTT18=
EXTT19=
EXTT20=
EXTT21=
EXTT22=
PLAYORDER=
